<?xml version="1.0" encoding="utf-8"?><svg version="1.1" id="Layer_1" xmlns="http://www.w3.org/2000/svg" xmlns:xlink="http://www.w3.org/1999/xlink" x="0px" y="0px" viewBox="0 0 115.28 122.88" style="enable-background:new 0 0 115.28 122.88" xml:space="preserve"><style type="text/css">.st0{fill-rule:evenodd;clip-rule:evenodd;}</style><g><path class="st0" d="M21.69,57h68.56V37.34H69.59c-2.17,0-5.19-1.17-6.62-2.6c-1.43-1.43-2.3-4.01-2.3-6.17V7.64l0,0H8.15 c-0.18,0-0.32,0.09-0.41,0.18C7.59,7.92,7.55,8.05,7.55,8.24v106.45c0,0.14,0.09,0.32,0.18,0.41c0.09,0.14,0.28,0.18,0.41,0.18 c22.78,0,58.09,0,81.51,0c0.18,0,0.17-0.09,0.27-0.18c0.14-0.09,0.33-0.28,0.33-0.41v-11.16H21.69c-4.14,0-7.56-3.4-7.56-7.56 V64.55C14.13,60.4,17.53,57,21.69,57L21.69,57z M47.36,82.07l6.42,1.94c-0.43,1.8-1.11,3.3-2.04,4.51 c-0.93,1.21-2.07,2.12-3.45,2.73c-1.37,0.61-3.12,0.92-5.25,0.92c-2.58,0-4.68-0.38-6.32-1.12c-1.63-0.75-3.04-2.07-4.23-3.95 c-1.19-1.88-1.78-4.3-1.78-7.23c0-3.92,1.04-6.93,3.13-9.04c2.09-2.1,5.04-3.16,8.86-3.16c2.98,0,5.33,0.6,7.04,1.81 c1.7,1.21,2.98,3.06,3.81,5.57l-6.45,1.43c-0.23-0.72-0.46-1.24-0.71-1.57c-0.41-0.56-0.92-0.99-1.51-1.29 c-0.6-0.3-1.26-0.45-1.99-0.45c-1.67,0-2.94,0.67-3.82,2c-0.67,0.99-1,2.54-1,4.66c0,2.63,0.4,4.42,1.2,5.4 c0.8,0.97,1.92,1.46,3.37,1.46c1.4,0,2.46-0.39,3.18-1.18C46.52,84.71,47.03,83.56,47.36,82.07L47.36,82.07z M56.12,83.93 l6.95-0.44c0.15,1.13,0.46,1.99,0.92,2.57c0.76,0.95,1.83,1.43,3.23,1.43c1.04,0,1.85-0.24,2.41-0.73c0.57-0.49,0.85-1.06,0.85-1.7 c0-0.61-0.26-1.16-0.8-1.65c-0.54-0.49-1.78-0.94-3.74-1.37c-3.21-0.72-5.49-1.68-6.86-2.87c-1.38-1.19-2.07-2.71-2.07-4.57 c0-1.21,0.35-2.36,1.06-3.44c0.71-1.09,1.77-1.94,3.18-2.55c1.42-0.62,3.36-0.93,5.83-0.93c3.03,0,5.33,0.56,6.92,1.69 c1.59,1.13,2.53,2.92,2.84,5.38l-6.88,0.41c-0.18-1.08-0.57-1.86-1.15-2.34c-0.59-0.49-1.4-0.73-2.43-0.73 c-0.85,0-1.5,0.18-1.93,0.54c-0.43,0.36-0.65,0.8-0.65,1.32c0,0.38,0.18,0.71,0.52,1.02c0.34,0.31,1.15,0.6,2.44,0.87 c3.2,0.69,5.49,1.39,6.87,2.1c1.38,0.71,2.39,1.58,3.02,2.63c0.63,1.04,0.94,2.21,0.94,3.51c0,1.52-0.42,2.92-1.26,4.2 c-0.84,1.28-2.01,2.26-3.52,2.92c-1.51,0.66-3.4,0.99-5.7,0.99c-4.03,0-6.82-0.78-8.37-2.33C57.2,88.29,56.32,86.32,56.12,83.93 L56.12,83.93z M80.08,83.93l6.95-0.44c0.15,1.13,0.46,1.99,0.92,2.57c0.76,0.95,1.83,1.43,3.23,1.43c1.04,0,1.85-0.24,2.41-0.73 c0.57-0.49,0.85-1.06,0.85-1.7c0-0.61-0.27-1.16-0.8-1.65c-0.54-0.49-1.78-0.94-3.74-1.37c-3.21-0.72-5.49-1.68-6.86-2.87 c-1.38-1.19-2.07-2.71-2.07-4.57c0-1.21,0.35-2.36,1.06-3.44c0.71-1.09,1.77-1.94,3.18-2.55c1.42-0.62,3.36-0.93,5.83-0.93 c3.03,0,5.33,0.56,6.92,1.69c1.59,1.13,2.53,2.92,2.84,5.38l-6.88,0.41c-0.18-1.08-0.57-1.86-1.15-2.34 c-0.59-0.49-1.4-0.73-2.43-0.73c-0.85,0-1.49,0.18-1.93,0.54c-0.43,0.36-0.65,0.8-0.65,1.32c0,0.38,0.18,0.71,0.52,1.02 c0.34,0.31,1.15,0.6,2.44,0.87c3.2,0.69,5.49,1.39,6.87,2.1c1.38,0.71,2.39,1.58,3.02,2.63c0.63,1.04,0.94,2.21,0.94,3.51 c0,1.52-0.42,2.92-1.26,4.2c-0.84,1.28-2.01,2.26-3.52,2.92c-1.51,0.66-3.4,0.99-5.7,0.99c-4.03,0-6.82-0.78-8.37-2.33 C81.16,88.29,80.29,86.32,80.08,83.93L80.08,83.93z M97.79,57h9.93c4.16,0,7.56,3.41,7.56,7.56v31.42c0,4.15-3.41,7.56-7.56,7.56 h-9.93v13.55c0,1.61-0.65,3.04-1.7,4.1c-1.06,1.06-2.49,1.7-4.1,1.7c-29.44,0-56.59,0-86.18,0c-1.61,0-3.04-0.64-4.1-1.7 c-1.06-1.06-1.7-2.49-1.7-4.1V5.85c0-1.61,0.65-3.04,1.7-4.1c1.06-1.06,2.53-1.7,4.1-1.7h58.72C64.66,0,64.8,0,64.94,0 c0.64,0,1.29,0.28,1.75,0.69h0.09c0.09,0.05,0.14,0.09,0.23,0.18l29.99,30.36c0.51,0.51,0.88,1.2,0.88,1.98 c0,0.23-0.05,0.41-0.09,0.65V57L97.79,57z M67.52,27.97V8.94l21.43,21.7H70.19c-0.74,0-1.38-0.32-1.89-0.78 C67.84,29.4,67.52,28.71,67.52,27.97L67.52,27.97z"/></g></svg>