<?xml version="1.0" encoding="utf-8"?><svg version="1.1" id="Layer_1" xmlns="http://www.w3.org/2000/svg" xmlns:xlink="http://www.w3.org/1999/xlink" x="0px" y="0px" viewBox="0 0 115.28 122.88" style="enable-background:new 0 0 115.28 122.88" xml:space="preserve"><style type="text/css">.st0{fill-rule:evenodd;clip-rule:evenodd;}</style><g><path class="st0" d="M25.38,57h64.88V37.34H69.59c-2.17,0-5.19-1.17-6.62-2.6c-1.43-1.43-2.3-4.01-2.3-6.17V7.64l0,0H8.15 c-0.18,0-0.32,0.09-0.41,0.18C7.59,7.92,7.55,8.05,7.55,8.24v106.45c0,0.14,0.09,0.32,0.18,0.41c0.09,0.14,0.28,0.18,0.41,0.18 c22.78,0,58.09,0,81.51,0c0.18,0,0.17-0.09,0.27-0.18c0.14-0.09,0.33-0.28,0.33-0.41v-11.16H25.38c-4.14,0-7.56-3.4-7.56-7.56 V64.55C17.82,60.4,21.22,57,25.38,57L25.38,57z M51.83,67.45h7.84v13.73c0,2.88-0.25,5.08-0.77,6.59c-0.51,1.5-1.54,2.78-3.09,3.83 c-1.55,1.04-3.53,1.57-5.95,1.57c-2.55,0-4.53-0.35-5.93-1.04c-1.41-0.69-2.49-1.7-3.26-3.03c-0.77-1.32-1.22-2.97-1.35-4.92 l7.45-1.01c0.01,1.11,0.11,1.93,0.29,2.47c0.18,0.54,0.49,0.97,0.94,1.31c0.3,0.22,0.72,0.32,1.28,0.32c0.88,0,1.52-0.32,1.93-0.97 c0.41-0.65,0.61-1.74,0.61-3.28V67.45L51.83,67.45z M63.59,84.37L71,83.9c0.16,1.2,0.49,2.12,0.98,2.74 c0.81,1.02,1.95,1.53,3.45,1.53c1.11,0,1.97-0.26,2.57-0.78c0.61-0.52,0.91-1.13,0.91-1.82c0-0.65-0.28-1.24-0.85-1.76 c-0.57-0.52-1.9-1-3.99-1.47c-3.43-0.77-5.86-1.79-7.32-3.07c-1.47-1.27-2.21-2.9-2.21-4.87c0-1.29,0.38-2.52,1.13-3.67 c0.75-1.16,1.88-2.07,3.4-2.73c1.51-0.66,3.59-0.99,6.22-0.99c3.23,0,5.69,0.6,7.39,1.81c1.7,1.2,2.7,3.11,3.03,5.74L78.35,75 c-0.19-1.15-0.61-1.98-1.23-2.5c-0.63-0.52-1.5-0.78-2.6-0.78c-0.91,0-1.6,0.19-2.05,0.58c-0.46,0.38-0.69,0.85-0.69,1.41 c0,0.4,0.19,0.76,0.56,1.08c0.36,0.34,1.23,0.64,2.61,0.93c3.41,0.74,5.86,1.48,7.33,2.24c1.48,0.75,2.55,1.68,3.23,2.8 c0.67,1.11,1.01,2.36,1.01,3.74c0,1.62-0.45,3.11-1.34,4.49c-0.9,1.37-2.15,2.41-3.76,3.11c-1.61,0.71-3.63,1.06-6.08,1.06 c-4.3,0-7.28-0.83-8.93-2.48C64.74,89.02,63.8,86.92,63.59,84.37L63.59,84.37z M97.79,57h9.93c4.16,0,7.56,3.41,7.56,7.56v31.42 c0,4.15-3.41,7.56-7.56,7.56h-9.93v13.55c0,1.61-0.65,3.04-1.7,4.1c-1.06,1.06-2.49,1.7-4.1,1.7c-29.44,0-56.59,0-86.18,0 c-1.61,0-3.04-0.64-4.1-1.7c-1.06-1.06-1.7-2.49-1.7-4.1V5.85c0-1.61,0.65-3.04,1.7-4.1c1.06-1.06,2.53-1.7,4.1-1.7h58.72 C64.66,0,64.8,0,64.94,0c0.64,0,1.29,0.28,1.75,0.69h0.09c0.09,0.05,0.14,0.09,0.23,0.18l29.99,30.36c0.51,0.51,0.88,1.2,0.88,1.98 c0,0.23-0.05,0.41-0.09,0.65V57L97.79,57z M67.52,27.97V8.94l21.43,21.7H70.19c-0.74,0-1.38-0.32-1.89-0.78 C67.84,29.4,67.52,28.71,67.52,27.97L67.52,27.97z"/></g></svg>