<svg width="32" height="33" viewBox="0 0 32 33" fill="none" xmlns="http://www.w3.org/2000/svg">
<g clip-path="url(#clip0_101_582)">
<path d="M16.7503 7.48598C18.8175 7.48598 20.4933 5.81018 20.4933 3.74299C20.4933 1.67579 18.8175 0 16.7503 0C14.6831 0 13.0073 1.67579 13.0073 3.74299C13.0073 5.81018 14.6831 7.48598 16.7503 7.48598Z" fill="black"/>
<path d="M16.7499 32.0012C17.9901 32.0012 18.9955 30.9958 18.9955 29.7557C18.9955 28.5155 17.9901 27.5101 16.7499 27.5101C15.5098 27.5101 14.5044 28.5155 14.5044 29.7557C14.5044 30.9958 15.5098 32.0012 16.7499 32.0012Z" fill="black"/>
<path d="M7.55301 10.9205C9.41362 10.9205 10.9219 9.41216 10.9219 7.55155C10.9219 5.69094 9.41362 4.18262 7.55301 4.18262C5.6924 4.18262 4.18408 5.69094 4.18408 7.55155C4.18408 9.41216 5.6924 10.9205 7.55301 10.9205Z" fill="black"/>
<path d="M25.9472 27.8162C26.9808 27.8162 27.8187 26.9783 27.8187 25.9447C27.8187 24.9111 26.9808 24.0732 25.9472 24.0732C24.9136 24.0732 24.0757 24.9111 24.0757 25.9447C24.0757 26.9783 24.9136 27.8162 25.9472 27.8162Z" fill="black"/>
<path d="M3.74317 19.7436C5.39653 19.7436 6.73684 18.4033 6.73684 16.7499C6.73684 15.0966 5.39653 13.7563 3.74317 13.7563C2.08982 13.7563 0.749512 15.0966 0.749512 16.7499C0.749512 18.4033 2.08982 19.7436 3.74317 19.7436Z" fill="black"/>
<path d="M29.756 18.2449C30.5823 18.2449 31.2522 17.5751 31.2522 16.7487C31.2522 15.9224 30.5823 15.2525 29.756 15.2525C28.9296 15.2525 28.2598 15.9224 28.2598 16.7487C28.2598 17.5751 28.9296 18.2449 29.756 18.2449Z" fill="black"/>
<path d="M5.70095 24.095C4.67716 25.1188 4.67716 26.7754 5.70095 27.7992C6.72353 28.823 8.3825 28.823 9.40508 27.7992C10.4289 26.7754 10.4289 25.1188 9.40508 24.095C8.3825 23.07 6.72475 23.0603 5.70095 24.095Z" fill="black"/>
<path d="M25.9459 8.67372C26.5657 8.67372 27.0681 8.17131 27.0681 7.55155C27.0681 6.93179 26.5657 6.42938 25.9459 6.42938C25.3261 6.42938 24.8237 6.93179 24.8237 7.55155C24.8237 8.17131 25.3261 8.67372 25.9459 8.67372Z" fill="black"/>
</g>
<defs>
<clipPath id="clip0_101_582">
<rect width="32" height="32.0012" fill="white"/>
</clipPath>
</defs>
</svg>
