<svg width="204" height="64" viewBox="0 0 204 64" fill="none" xmlns="http://www.w3.org/2000/svg">
<path fill-rule="evenodd" clip-rule="evenodd" d="M39.5466 48.1824H7.90915L0 56.0915V48.1822H8.22166e-05V24.4545L23.728 0.726562H35.5919L7.90938 28.4091V40.2731H39.5466L47.4559 48.1824V64.001H39.5466V48.1824ZM35.5919 0.726562H55.3651L47.4558 8.63586H35.5919V0.726562Z" fill="black"/>
<path d="M82.0617 13.2568C83.7817 13.2568 85.1899 13.7861 86.2862 14.8446C87.4014 15.903 87.959 17.6514 87.959 20.0897V28H83.9613V20.2598C83.9613 19.0501 83.7156 18.1334 83.2241 17.5097C82.7327 16.867 81.9955 16.5457 81.0127 16.5457C79.992 16.5457 79.1887 16.8954 78.6027 17.5947C78.0357 18.2941 77.7522 19.2675 77.7522 20.515V28H73.7545V8.15343H77.7522V15.2131C78.8295 13.9089 80.2661 13.2568 82.0617 13.2568ZM104.257 24.6261V28H102.216C100.382 28 99.4844 27.2061 99.5222 25.6184C98.993 26.4501 98.3409 27.0833 97.5659 27.518C96.791 27.9527 95.8554 28.1701 94.7591 28.1701C93.1335 28.1701 91.8199 27.8015 90.8181 27.0644C89.8352 26.3083 89.3438 25.2498 89.3438 23.8889C89.3438 22.339 89.9108 21.1482 91.0449 20.3165C92.1979 19.466 93.8612 19.0407 96.0349 19.0407H98.9268V18.3319C98.9268 17.6703 98.6811 17.1505 98.1897 16.7725C97.6983 16.3756 97.0367 16.1771 96.205 16.1771C95.4679 16.1771 94.863 16.3378 94.3905 16.6591C93.918 16.9804 93.6344 17.4152 93.5399 17.9633H89.684C89.8163 16.4701 90.4779 15.3171 91.6687 14.5043C92.8595 13.6727 94.4377 13.2568 96.4035 13.2568C98.4638 13.2568 100.051 13.7105 101.167 14.6177C102.301 15.525 102.868 16.8387 102.868 18.5587V23.6905C102.868 24.0496 102.943 24.2953 103.095 24.4276C103.246 24.5599 103.482 24.6261 103.803 24.6261H104.257ZM98.9268 21.7058H96.0066C95.1749 21.7058 94.5228 21.8759 94.0503 22.2161C93.5966 22.5375 93.3698 23.0006 93.3698 23.6054C93.3698 24.1157 93.5588 24.5221 93.9369 24.8245C94.3338 25.127 94.863 25.2782 95.5246 25.2782C96.5642 25.2782 97.3864 24.9852 97.9912 24.3993C98.5961 23.7944 98.9079 22.9911 98.9268 21.9893V21.7058ZM103.349 13.427H107.573L110.494 23.6905L113.244 13.427H116.845L119.51 23.7188L122.487 13.427H126.569L121.778 28H117.525L114.973 19.2108L112.365 28H108.112L103.349 13.427ZM127.401 8.15343H131.399V19.6361L137.126 13.427H141.606L136.417 19.1258L141.889 28H137.268L133.582 22.1027L131.399 24.456V28H127.401V8.15343Z" fill="black"/>
<path d="M74.9169 43.5404V41.9243C74.9169 40.639 75.2099 39.6939 75.7959 39.0891C76.4007 38.4653 77.3647 38.1534 78.6878 38.1534H81.3529V40.2799H78.8295C78.2625 40.2799 77.8561 40.4027 77.6104 40.6484C77.3647 40.8942 77.2418 41.3005 77.2418 41.8676V43.5404H81.3245V45.6668H77.2418V58H74.9169V45.6668H72.3085V43.5404H74.9169ZM89.6723 43.5404V45.8085H88.5098C87.13 45.8085 86.1377 46.2716 85.5329 47.1978C84.9469 48.124 84.6539 49.2675 84.6539 50.6284V58H82.3291V43.5404H84.3421L84.6539 45.7235C85.0698 45.0619 85.6085 44.5327 86.27 44.1358C86.9316 43.7388 87.8483 43.5404 89.0202 43.5404H89.6723ZM104.063 55.8736V58H102.787C101.861 58 101.199 57.811 100.803 57.433C100.406 57.0549 100.198 56.4973 100.179 55.7602C99.0636 57.3668 97.4475 58.1701 95.3305 58.1701C93.7239 58.1701 92.4292 57.7921 91.4463 57.036C90.4823 56.28 90.0003 55.2498 90.0003 53.9456C90.0003 52.4902 90.4918 51.375 91.4746 50.6001C92.4764 49.8251 93.9224 49.4376 95.8125 49.4376H100.065V48.4453C100.065 47.5002 99.744 46.7631 99.1014 46.2338C98.4776 45.7046 97.5987 45.44 96.4646 45.44C95.4629 45.44 94.6312 45.6668 93.9696 46.1204C93.327 46.5551 92.9301 47.1411 92.7788 47.8783H90.454C90.6241 46.4606 91.2478 45.3549 92.3252 44.561C93.4215 43.7672 94.8391 43.3702 96.578 43.3702C98.4304 43.3702 99.8575 43.8239 100.859 44.7312C101.88 45.6195 102.39 46.9048 102.39 48.5871V54.8245C102.39 55.5239 102.712 55.8736 103.354 55.8736H104.063ZM100.065 51.3939H95.5857C93.4309 51.3939 92.3536 52.1972 92.3536 53.8039C92.3536 54.5221 92.6371 55.0986 93.2041 55.5334C93.7712 55.9681 94.5367 56.1855 95.5007 56.1855C96.9183 56.1855 98.0335 55.8169 98.8462 55.0797C99.659 54.3237 100.065 53.3313 100.065 52.1027V51.3939ZM121.416 43.3702C123.041 43.3702 124.355 43.8806 125.357 44.9013C126.377 45.9219 126.888 47.5097 126.888 49.6644V58H124.563V49.8062C124.563 48.4075 124.26 47.3396 123.656 46.6024C123.07 45.8652 122.228 45.4967 121.132 45.4967C119.922 45.4967 118.968 45.9219 118.269 46.7725C117.588 47.6231 117.248 48.7855 117.248 50.2598V58H114.923V49.8062C114.923 48.4075 114.621 47.3396 114.016 46.6024C113.411 45.8652 112.551 45.4967 111.436 45.4967C110.264 45.4967 109.328 45.9503 108.629 46.8576C107.948 47.7459 107.608 48.9178 107.608 50.3732V58H105.283V43.5404H107.296L107.608 45.525C108.648 44.0885 110.056 43.3702 111.833 43.3702C112.872 43.3702 113.789 43.6065 114.583 44.0791C115.396 44.5327 116 45.2131 116.397 46.1204C117.437 44.287 119.11 43.3702 121.416 43.3702ZM128.793 50.7702C128.793 49.2959 129.076 48.0011 129.643 46.8859C130.229 45.7707 131.042 44.9107 132.081 44.3059C133.121 43.6821 134.312 43.3702 135.654 43.3702C136.977 43.3702 138.149 43.6443 139.17 44.1925C140.19 44.7406 140.994 45.5345 141.579 46.574C142.165 47.6136 142.477 48.8328 142.515 50.2315C142.515 50.4394 142.496 50.7702 142.458 51.2238H131.231V51.4223C131.269 52.8399 131.703 53.974 132.535 54.8245C133.367 55.6751 134.454 56.1004 135.796 56.1004C136.835 56.1004 137.714 55.8452 138.432 55.3349C139.17 54.8056 139.661 54.0779 139.907 53.1518H142.26C141.976 54.6261 141.268 55.8358 140.133 56.7809C138.999 57.707 137.61 58.1701 135.966 58.1701C134.529 58.1701 133.272 57.8677 132.195 57.2628C131.117 56.6391 130.276 55.7696 129.672 54.6544C129.086 53.5203 128.793 52.2256 128.793 50.7702ZM140.105 49.2959C139.992 48.0673 139.529 47.1127 138.716 46.4323C137.922 45.7518 136.911 45.4116 135.682 45.4116C134.586 45.4116 133.622 45.7707 132.79 46.489C131.959 47.2072 131.486 48.1429 131.373 49.2959H140.105ZM142.825 43.5404H145.263L148.864 55.3065L152.663 43.5404H154.818L158.418 55.3065L162.189 43.5404H164.543L159.723 58H157.171L153.684 47.2545L150.055 58L147.503 58.0284L142.825 43.5404ZM172.044 58.1701C170.645 58.1701 169.398 57.8582 168.301 57.2345C167.224 56.6107 166.383 55.7413 165.778 54.6261C165.173 53.5109 164.871 52.2256 164.871 50.7702C164.871 49.3148 165.173 48.0295 165.778 46.9143C166.383 45.7991 167.224 44.9296 168.301 44.3059C169.398 43.6821 170.645 43.3702 172.044 43.3702C173.443 43.3702 174.681 43.6821 175.758 44.3059C176.854 44.9296 177.705 45.7991 178.31 46.9143C178.915 48.0295 179.217 49.3148 179.217 50.7702C179.217 52.2256 178.915 53.5109 178.31 54.6261C177.705 55.7413 176.854 56.6107 175.758 57.2345C174.681 57.8582 173.443 58.1701 172.044 58.1701ZM172.044 56.1004C172.989 56.1004 173.821 55.8736 174.539 55.4199C175.276 54.9663 175.843 54.3331 176.24 53.5203C176.637 52.7076 176.835 51.7909 176.835 50.7702C176.835 49.7495 176.637 48.8328 176.24 48.02C175.843 47.2072 175.276 46.574 174.539 46.1204C173.821 45.6668 172.989 45.44 172.044 45.44C171.099 45.44 170.258 45.6668 169.521 46.1204C168.802 46.574 168.245 47.2072 167.848 48.02C167.451 48.8328 167.252 49.7495 167.252 50.7702C167.252 51.7909 167.451 52.7076 167.848 53.5203C168.245 54.3331 168.802 54.9663 169.521 55.4199C170.258 55.8736 171.099 56.1004 172.044 56.1004ZM188.659 43.5404V45.8085H187.497C186.117 45.8085 185.125 46.2716 184.52 47.1978C183.934 48.124 183.641 49.2675 183.641 50.6284V58H181.316V43.5404H183.329L183.641 45.7235C184.057 45.0619 184.595 44.5327 185.257 44.1358C185.919 43.7388 186.835 43.5404 188.007 43.5404H188.659ZM190.218 38.1534H192.543V51.3089L199.886 43.5404H202.665L197.108 49.466L203.062 58H200.255L195.435 51.1388L192.543 54.1724V58H190.218V38.1534Z" fill="black"/>
</svg>
