<svg width="50" height="50" viewBox="0 0 50 50" fill="none" xmlns="http://www.w3.org/2000/svg">
<rect width="50" height="50" fill="#FA6900" fill-opacity="0"/>
<rect width="48" height="32.6809" fill="#FA6900" fill-opacity="0" transform="translate(1 9)"/>
<rect width="48" height="32.6809" fill="#FA6900" fill-opacity="0" transform="translate(1 9)"/>
<path d="M25.0602 28.5995H25.0705C25.4325 28.5995 25.7902 28.4926 26.0796 28.2979L26.1581 28.2465C26.1752 28.2352 26.1931 28.2249 26.2111 28.2127L27.1254 27.4425L48.9496 9.10692C48.9045 9.04344 48.8275 9 48.7456 9H1.25357C1.19467 9 1.14 9.02172 1.09647 9.05821L23.9298 28.2187C24.2176 28.4613 24.6282 28.5995 25.0602 28.5995ZM1 11.5981V38.7768L17.3569 25.3243L1 11.5981ZM32.6602 25.4156L49 38.7838V11.6885L32.6602 25.4156ZM27.4652 29.779C26.8138 30.3231 25.9618 30.623 25.0671 30.623C24.1689 30.623 23.3177 30.3248 22.6681 29.7833L18.9218 26.6376L1 41.3749V41.4218C1 41.5618 1.1178 41.6809 1.25694 41.6809H48.7464C48.883 41.6809 48.9999 41.5618 48.9999 41.4209V41.3775L31.0936 26.7299L27.4652 29.779Z" fill="#FA6900"/>
</svg>