<svg width="130" height="130" viewBox="0 0 130 130" fill="none" xmlns="http://www.w3.org/2000/svg">
<path d="M30.652 0H58.6523V11.454C59.4586 11.3128 60.2728 11.2214 61.0902 11.1803C64.0224 11.1803 66.8346 12.3574 68.908 14.4528C70.9814 16.5482 72.1463 19.3901 72.1463 22.3534C72.1463 25.3166 70.9814 28.1585 68.908 30.2539C66.8346 32.3493 64.0224 33.5264 61.0902 33.5264C60.2728 33.4856 59.4586 33.3941 58.6523 33.2527V59.5753H36.0268C36.3608 58.3599 36.5803 57.1153 36.6826 55.8582C36.6658 54.2494 36.3034 52.6635 35.6205 51.2102C34.9376 49.7569 33.9504 48.4708 32.7273 47.4409C31.5042 46.4111 30.0743 45.662 28.5365 45.2456C26.9987 44.8291 25.3898 44.7552 23.821 45.029C22.2522 45.3027 20.7609 45.9176 19.4504 46.8311C18.1399 47.7445 17.0413 48.9348 16.2307 50.3195C15.4202 51.7042 14.9169 53.2503 14.7558 54.8509C14.5946 56.4515 14.7795 58.0684 15.2975 59.5897H0V39.664" transform="translate(50.8538 50.9586)" stroke="#FF7714" stroke-width="3" stroke-miterlimit="10"/>
<path d="M26.3607 68.4648L37.6521 79.9909L78.7258 38.2089L67.9904 27.3312C67.3805 28.42 66.6692 29.4476 65.8662 30.4C64.8577 31.4263 63.6583 32.2408 62.337 32.7967C61.0158 33.3525 59.5987 33.6387 58.1675 33.6387C56.7363 33.6387 55.3193 33.3525 53.998 32.7967C52.6767 32.2408 51.4773 31.4263 50.4689 30.4C48.4264 28.3194 47.2804 25.5074 47.2804 22.5767C47.2804 19.6459 48.4264 16.834 50.4689 14.7534C51.3937 13.9497 52.3913 13.2357 53.4485 12.621L41.0309 0L27.1876 14.0618C26.7185 13.3875 26.209 12.7428 25.6621 12.1312C24.6537 11.1049 23.4543 10.2903 22.133 9.7345C20.8117 9.17866 19.3947 8.8925 17.9635 8.8925C16.5323 8.8925 15.1153 9.17866 13.794 9.7345C12.4727 10.2903 11.2733 11.1049 10.2649 12.1312C9.10128 13.3038 8.21306 14.7255 7.6657 16.2913C7.11834 17.8571 6.92582 19.5271 7.10233 21.1782C7.27884 22.8292 7.81989 24.4192 8.68555 25.8307C9.55122 27.2423 10.7194 28.4394 12.104 29.3338L0 41.6955L12.104 54.0428C12.7169 52.5331 13.654 51.1797 14.8474 50.0805C16.0409 48.9812 17.461 48.1635 19.0052 47.6864C20.5494 47.2092 22.1792 47.0846 23.7769 47.3214C25.3746 47.5582 26.9003 48.1506 28.2439 49.0558C29.5875 49.961 30.7154 51.1564 31.5462 52.5558C32.377 53.9551 32.89 55.5233 33.0481 57.1474C33.2062 58.7714 33.0055 60.4106 32.4605 61.9467C31.9154 63.4828 31.0397 64.8775 29.8964 66.0299C28.809 66.9691 27.6234 67.7856 26.3607 68.4648Z" transform="translate(7 17)" stroke="#333B62" stroke-width="3" stroke-miterlimit="10"/>
</svg>