<svg width="130" height="130" viewBox="0 0 130 130" fill="none" xmlns="http://www.w3.org/2000/svg">
<path d="M34.9714 0C33.949 3.90106 31.6798 7.35074 28.5173 9.81188C25.3547 12.273 21.4762 13.6075 17.4857 13.6075C13.4952 13.6075 9.61675 12.273 6.45418 9.81188C3.2916 7.35074 1.02243 3.90106 0 0" transform="translate(47.6 47.0187)" stroke="#FF7714" stroke-width="3" stroke-miterlimit="10"/>
<path d="M0 84.5531L31.5714 0L63.1429 84.5531H62.599L31.5714 14.6231L0.589131 84.5531H0Z" transform="translate(34 32.4469)" fill="#333B62"/>
<path d="M9.96992 20.0233C15.4762 20.0233 19.9398 15.541 19.9398 10.0117C19.9398 4.48238 15.4762 0 9.96992 0C4.46369 0 0 4.48238 0 10.0117C0 15.541 4.46369 20.0233 9.96992 20.0233Z" transform="translate(55.6015 22.4352)" stroke="#FF7714" stroke-width="3" stroke-miterlimit="10"/>
<path d="M0 0V13.5613" transform="translate(65.7678 13)" stroke="#FF7714" stroke-width="3" stroke-miterlimit="10"/>
</svg>